<svg version="1.1" id="Layer_1" xmlns="http://www.w3.org/2000/svg" xmlns:xlink="http://www.w3.org/1999/xlink" x="0px" y="0px"
	 width="100%" viewBox="0 0 1024 1024" enable-background="new 0 0 1024 1024" xml:space="preserve">
<path fill="#000000" opacity="1.000000" stroke="none" 
	d="
M611.076416,213.813812 
	C636.072937,224.920807 660.719482,235.883453 685.364014,246.850815 
	C686.428040,247.324326 687.514893,247.768631 688.519226,248.350525 
	C693.407715,251.182953 693.512512,255.055115 688.474731,257.688751 
	C683.319580,260.383759 677.971985,262.756989 672.563782,264.906433 
	C668.570984,266.493317 667.105347,268.940674 667.254395,273.264008 
	C667.564270,282.251495 667.425171,291.258057 667.306213,300.254608 
	C667.268494,303.106628 667.851868,305.255737 670.283936,307.138397 
	C674.626038,310.499603 676.443970,315.136780 676.385925,320.707092 
	C676.245239,334.202759 676.340820,347.700836 676.314209,361.197876 
	C676.300842,368.014740 675.013306,369.268768 668.069031,369.302063 
	C662.570251,369.328461 657.071045,369.354736 651.572693,369.304504 
	C645.902954,369.252716 644.710999,368.149170 644.688293,362.621521 
	C644.628784,348.124817 644.704407,333.627533 644.632202,319.130920 
	C644.607910,314.250702 646.452148,310.278229 650.302124,307.490356 
	C652.918457,305.595764 653.756531,303.395905 653.701538,300.291473 
	C653.549072,291.679718 653.648682,283.063446 653.648682,274.089020 
	C649.231323,274.550842 646.121826,276.548218 642.849182,277.985352 
	C636.446838,280.796844 630.178345,283.918304 623.739014,286.638184 
	C620.513062,288.000763 619.253540,289.969788 619.289062,293.488098 
	C619.435669,307.983551 619.362854,322.481476 619.322998,336.978363 
	C619.318604,338.579376 619.880066,340.542633 618.203552,341.588013 
	C616.206726,342.833099 614.755432,341.000519 613.312134,340.090454 
	C582.854309,320.885590 544.693237,321.827301 516.164001,342.676880 
	C513.550537,344.586853 511.837708,344.517822 509.195557,342.589569 
	C491.342865,329.560669 471.088684,325.993439 449.516113,328.017609 
	C436.236847,329.263611 423.801361,333.092133 412.316193,339.984589 
	C408.912323,342.027344 407.694946,341.033875 407.675232,336.259888 
	C407.617371,322.263062 407.490326,308.262848 407.747040,294.270538 
	C407.823792,290.087555 406.317169,288.052612 402.594666,286.392273 
	C382.672974,277.506775 362.862732,268.371399 343.014343,259.321564 
	C341.802582,258.769043 340.575500,258.246063 339.388672,257.644012 
	C337.531586,256.701965 335.967194,255.419098 335.855652,253.168533 
	C335.727966,250.592545 337.523499,249.313431 339.574524,248.380295 
	C348.667480,244.243362 357.770355,240.128113 366.878571,236.024811 
	C411.964569,215.713348 457.113892,195.540298 502.080719,174.968414 
	C509.421753,171.609940 515.437439,170.988785 523.153381,174.584381 
	C552.124512,188.084702 581.501404,200.714386 611.076416,213.813812 
z"/>
<path fill="#000000" opacity="1.000000" stroke="none" 
	d="
M593.447876,445.012146 
	C612.673767,443.857635 630.335754,446.817841 645.710754,458.699860 
	C653.893005,465.023254 659.135864,472.146393 658.629333,483.477966 
	C657.984131,497.912140 659.090820,512.420959 659.323608,526.899536 
	C659.444519,534.416931 658.513428,535.126160 651.090759,535.402466 
	C615.365540,536.731750 581.578552,544.558228 551.849487,565.571350 
	C542.448181,572.216431 533.692993,579.640747 526.182556,588.442200 
	C525.146484,589.656311 524.329773,591.313782 522.319824,591.189636 
	C520.557922,590.346069 520.815002,588.702820 520.808838,587.263672 
	C520.709961,564.285767 520.039551,541.289917 520.713257,518.333801 
	C521.753296,482.896576 547.839661,453.267883 582.674744,446.733063 
	C586.096069,446.091217 589.553894,445.644287 593.447876,445.012146 
z"/>
<path fill="#000000" opacity="1.000000" stroke="none" 
	d="
M481.694702,466.287445 
	C497.473145,481.237701 505.811127,498.915619 505.430237,520.668152 
	C505.048035,542.492249 505.356842,564.328308 505.333130,586.159119 
	C505.331024,588.097046 505.668884,590.111755 504.797943,591.900879 
	C502.627258,592.420471 501.962952,590.773499 501.043304,589.735779 
	C475.589264,561.013184 443.451508,544.625671 405.914001,538.315369 
	C395.250519,536.522705 384.480042,535.482361 373.653076,535.342407 
	C369.518311,535.289001 367.598785,533.550659 367.620697,529.286438 
	C367.708923,512.122192 367.648682,494.957306 367.661682,477.792633 
	C367.665894,472.270630 370.309387,467.935333 373.970367,464.086487 
	C383.923737,453.622406 396.509308,448.047363 410.431458,445.941956 
	C437.000488,441.923950 460.984619,447.985840 481.694702,466.287445 
z"/>
<path fill="#000000" opacity="1.000000" stroke="none" 
	d="
M620.346497,555.104675 
	C636.784058,551.890991 652.925781,549.778442 669.275818,549.790894 
	C673.433411,549.794006 673.688293,547.416443 673.680237,544.263672 
	C673.629639,524.437927 673.813293,504.609955 673.556702,484.787445 
	C673.489380,479.586975 675.122498,476.906494 680.240906,475.512115 
	C694.297974,471.682770 692.197388,471.251190 692.233948,484.207214 
	C692.314758,512.862854 692.275513,541.518738 692.268127,570.174561 
	C692.265808,579.148193 691.789185,579.255615 682.897400,578.497498 
	C645.312256,575.293213 609.324707,580.435730 575.737122,598.816101 
	C557.917053,608.567810 541.404724,619.869995 527.725891,635.015869 
	C526.291138,636.604553 524.689148,637.564514 522.506409,637.391724 
	C522.175659,637.365479 521.837341,637.368652 521.507690,637.405457 
	C509.176300,638.781250 497.723206,637.823669 490.442749,625.744934 
	C460.098724,599.757385 425.822205,582.764221 385.476990,579.193298 
	C370.149445,577.836609 354.932190,577.934875 339.714447,580.067749 
	C336.530731,580.513977 334.619690,579.794739 334.627747,575.999695 
	C334.698425,542.679199 334.676575,509.358490 334.701752,476.037872 
	C334.702240,475.404053 334.942078,474.770386 335.158112,473.702118 
	C340.666473,473.502869 345.609131,475.346466 350.364990,477.514740 
	C352.886169,478.664093 352.340576,481.490601 352.341949,483.794037 
	C352.354187,504.119720 352.494568,524.447205 352.246185,544.769836 
	C352.186279,549.671631 353.841553,551.043091 358.543121,551.033264 
	C385.487061,550.977051 412.077179,553.746704 437.353821,563.728027 
	C464.142792,574.306580 487.224335,590.310852 505.672607,612.649597 
	C511.306915,619.472107 514.131592,619.576660 519.930786,612.948181 
	C540.161682,589.824219 564.298828,572.256958 593.381104,561.972412 
	C601.980774,558.931335 610.881287,556.675598 620.346497,555.104675 
z"/>
<path fill="#000000" opacity="1.000000" stroke="none" 
	d="
M564.309448,366.233337 
	C585.750061,351.046631 613.575500,356.889313 624.473206,378.741180 
	C631.066223,391.961273 630.654785,405.257507 622.625610,417.639832 
	C614.381165,430.354034 602.198730,436.134003 586.969177,435.510712 
	C557.541626,434.306274 541.325073,403.554230 553.962097,378.717102 
	C556.398682,373.928223 559.888794,369.901642 564.309448,366.233337 
z"/>
<path fill="#000000" opacity="1.000000" stroke="none" 
	d="
M408.295044,423.689575 
	C387.214600,398.297699 398.894440,364.745270 430.785034,358.118317 
	C452.481934,353.609650 475.982361,372.107819 476.335663,393.973083 
	C476.633789,412.421631 468.888092,425.882599 453.259979,432.324310 
	C436.755707,439.127106 421.696777,436.089050 408.295044,423.689575 
z"/>
<path fill="#000000" opacity="1.000000" stroke="none" 
	d="
M655.862061,716.326416 
	C655.884216,702.421814 656.018616,688.925659 655.869568,675.432678 
	C655.822021,671.126709 657.333740,669.536377 661.699707,669.633972 
	C674.848328,669.927856 673.324890,668.327942 673.367920,680.995911 
	C673.443237,703.154053 673.376282,725.312683 673.358948,747.471069 
	C673.353638,754.197693 673.214600,753.906250 666.778503,754.431213 
	C660.748596,754.923096 657.007385,752.836487 653.675171,747.736633 
	C645.024109,734.496521 635.795715,721.633118 626.762207,708.643982 
	C625.573792,706.935120 624.668884,704.946411 622.245239,703.466980 
	C622.245239,718.007202 622.246155,732.117188 622.244812,746.227112 
	C622.244019,754.316162 622.242310,754.316223 614.219849,754.316528 
	C604.683350,754.316895 604.684143,754.316833 604.684692,744.808105 
	C604.685974,721.816528 604.800354,698.823853 604.595459,675.834106 
	C604.552124,670.972229 606.255981,669.798035 610.930603,669.510071 
	C617.678894,669.094421 621.824402,671.296387 625.522278,677.126526 
	C633.991455,690.479187 643.290344,703.305786 652.266541,716.336304 
	C653.178284,717.659912 654.186096,718.917358 655.864441,721.161804 
	C655.864441,718.926758 655.864441,717.831421 655.862061,716.326416 
z"/>
<path fill="#000000" opacity="1.000000" stroke="none" 
	d="
M573.903809,717.137024 
	C573.890503,703.081299 573.991150,689.421875 573.812439,675.766052 
	C573.755066,671.383972 574.996826,669.436096 579.773987,669.616089 
	C592.105225,670.080750 591.407776,667.734192 591.395203,681.056091 
	C591.373840,703.542053 591.290466,726.028748 591.476746,748.513184 
	C591.512573,752.843384 590.180420,754.118652 585.839539,754.474426 
	C578.902222,755.042969 574.614807,752.747437 570.773499,746.746643 
	C561.892334,732.872742 552.152466,719.548218 542.742981,706.013245 
	C542.009583,704.958191 541.518799,703.650879 539.764526,702.973022 
	C539.108887,714.842407 539.448181,726.544739 539.627747,738.245422 
	C539.660889,740.403931 539.605286,742.563904 539.581665,744.723145 
	C539.548218,747.788879 541.290710,751.988159 538.124023,753.504272 
	C533.973999,755.491089 528.986389,754.538757 524.393616,753.880615 
	C522.542664,753.615295 522.682678,751.629517 522.681335,750.155273 
	C522.658081,724.837891 522.681702,699.520508 522.630371,674.203247 
	C522.623962,671.042053 523.860352,670.080872 527.072510,669.778503 
	C535.320435,669.001953 540.500916,672.261902 544.954102,679.309937 
	C553.912231,693.487976 563.828796,707.060364 573.416443,720.979370 
	C574.573792,719.766235 573.670898,718.588257 573.903809,717.137024 
z"/>
<path fill="#000000" opacity="1.000000" stroke="none" 
	d="
M484.012207,753.350464 
	C454.685852,762.181030 428.737427,742.912659 428.650421,712.750671 
	C428.599640,695.151855 435.168579,681.137939 451.015350,672.733032 
	C476.129700,659.412720 507.294830,675.809875 511.290558,704.108398 
	C514.515320,726.946533 504.540161,745.173523 484.012207,753.350464 
M492.435028,702.212646 
	C489.194855,692.965637 482.899292,686.935181 473.155853,685.522583 
	C464.255402,684.232056 456.541168,687.368042 451.443817,694.879944 
	C444.728882,704.775513 444.438568,715.575989 449.678009,726.112915 
	C455.230347,737.278992 468.021698,741.444397 479.471771,736.519836 
	C491.201813,731.474915 496.705963,717.459778 492.435028,702.212646 
z"/>
<path fill="#000000" opacity="1.000000" stroke="none" 
	d="
M251.740204,682.276245 
	C265.040955,696.582153 266.195129,719.285217 257.289520,734.650574 
	C249.888763,747.419434 237.983215,753.161316 223.792007,754.156616 
	C214.843094,754.784180 205.814224,754.202087 196.824280,754.349365 
	C193.222351,754.408447 191.708801,753.052429 191.719025,749.393066 
	C191.789215,724.248352 191.762497,699.103333 191.753448,673.958435 
	C191.752655,671.755188 192.171783,669.723389 194.864075,669.799377 
	C207.460007,670.155029 220.136673,668.312134 232.638855,671.389771 
	C239.956528,673.191040 246.262726,676.607361 251.740204,682.276245 
M236.343521,731.907410 
	C249.783310,719.891174 247.987289,698.148804 232.776566,689.883728 
	C226.442352,686.441895 219.464767,686.065979 212.422562,686.407532 
	C210.413589,686.505005 209.391953,687.555481 209.390656,689.571106 
	C209.381027,704.526428 209.387573,719.481873 209.350754,734.437073 
	C209.345612,736.529358 210.276672,737.654297 212.329834,737.463379 
	C220.347794,736.717468 228.756134,737.703735 236.343521,731.907410 
z"/>
<path fill="#000000" opacity="1.000000" stroke="none" 
	d="
M728.994080,754.308411 
	C716.507935,754.305237 704.519104,754.185120 692.534668,754.363159 
	C688.179077,754.427917 686.660461,752.709290 686.679260,748.458130 
	C686.787354,723.985046 686.801880,699.510864 686.673584,675.037964 
	C686.651428,670.810181 688.332458,669.594788 692.329102,669.633667 
	C707.644470,669.782776 722.963440,669.794861 738.278320,669.620361 
	C742.680481,669.570251 744.095520,671.400757 744.171082,675.553101 
	C744.367554,686.352112 744.478577,686.347595 733.853027,686.350708 
	C725.695190,686.353149 717.535034,686.476807 709.380493,686.316895 
	C705.776367,686.246277 704.252869,687.477722 704.343140,691.210999 
	C704.735168,707.410156 702.040283,704.304565 717.175232,704.628967 
	C722.666809,704.746765 728.169861,704.823059 733.654724,704.599487 
	C737.651672,704.436523 739.322021,705.764099 739.360107,709.982117 
	C739.454041,720.388977 739.616882,720.384949 729.204346,720.377014 
	C722.711304,720.372070 716.213928,720.519714 709.726990,720.321106 
	C705.993530,720.206848 704.273376,721.288208 704.328125,725.364868 
	C704.523499,739.886963 703.395813,737.316772 715.754578,737.078979 
	C723.409973,736.931641 731.071472,737.125427 738.728149,737.017639 
	C743.208496,736.954590 745.353455,738.509460 745.322754,743.434082 
	C745.254944,754.300049 745.460083,754.301697 734.487793,754.312866 
	C732.822876,754.314514 731.158020,754.310730 728.994080,754.308411 
z"/>
<path fill="#000000" opacity="1.000000" stroke="none" 
	d="
M130.074646,669.686890 
	C144.722626,669.686584 158.880508,669.829834 173.032547,669.605286 
	C177.668121,669.531677 179.595261,670.804260 179.438583,675.771301 
	C179.060150,687.768311 180.512344,686.254761 169.108948,686.339294 
	C161.115616,686.398560 153.118866,686.472290 145.128983,686.296692 
	C141.616745,686.219543 139.899368,687.185547 139.991745,691.033020 
	C140.390350,707.632629 137.798660,704.256226 153.211731,704.631775 
	C159.037140,704.773743 164.869308,704.721252 170.697052,704.648682 
	C173.591705,704.612610 174.843262,705.912659 175.169327,708.757996 
	C176.397369,719.473511 175.621811,720.392883 164.790222,720.378601 
	C157.962250,720.369568 151.133041,720.457153 144.306839,720.347900 
	C141.388718,720.301270 140.215759,721.346313 140.029694,724.376465 
	C139.254868,736.995605 139.169830,737.008545 151.753738,737.083435 
	C159.580566,737.130005 167.408600,737.182068 175.234467,737.091370 
	C178.887421,737.049011 180.623154,738.136047 180.508377,742.267456 
	C180.142242,755.449097 182.642609,754.293945 168.613678,754.305176 
	C155.124222,754.316040 141.633362,754.198303 128.146133,754.371216 
	C124.086403,754.423279 122.552605,753.093018 122.573357,748.923645 
	C122.696045,724.277039 122.776848,699.627686 122.494324,674.983643 
	C122.426224,669.044189 125.865860,669.619202 130.074646,669.686890 
z"/>
<path fill="#000000" opacity="1.000000" stroke="none" 
	d="
M291.349304,691.000244 
	C291.713776,702.805725 290.703400,714.126099 291.964294,725.429443 
	C293.102325,735.631409 300.274139,738.959656 308.235382,738.493652 
	C317.573029,737.947266 322.507080,732.410095 322.611755,722.674866 
	C322.776489,707.348145 322.664612,692.018555 322.686035,676.690186 
	C322.695740,669.735779 322.713318,669.735779 329.614471,669.709473 
	C340.160583,669.669312 340.173218,669.669312 340.193695,680.281738 
	C340.221680,694.776794 340.386566,709.273987 340.198730,723.766357 
	C340.014526,737.981445 332.710083,749.421692 321.170044,753.282166 
	C308.311829,757.583679 290.391052,756.400635 281.710327,745.833801 
	C276.340179,739.296997 274.100830,731.749878 273.955322,723.650513 
	C273.662079,707.327820 273.914795,690.995972 273.805481,674.668823 
	C273.781128,671.027832 275.151611,669.602478 278.814819,669.671082 
	C293.671387,669.949219 291.083527,667.885010 291.342773,682.002808 
	C291.394745,684.834412 291.349487,687.667725 291.349304,691.000244 
z"/>
<path fill="#000000" opacity="1.000000" stroke="none" 
	d="
M759.438171,736.377441 
	C749.728027,717.785095 751.547729,696.197815 763.829956,681.660706 
	C777.538269,665.435547 804.465759,663.394775 820.608521,677.259399 
	C823.219116,679.501648 824.078125,681.607910 821.656616,684.410522 
	C821.222961,684.912415 820.879089,685.491394 820.487610,686.030273 
	C815.151978,693.373230 815.151733,693.373047 807.278687,688.679382 
	C791.854187,679.483765 772.816284,689.190247 771.425903,707.083008 
	C771.118652,711.037048 771.008545,715.170593 771.799194,719.017639 
	C775.487549,736.964722 794.976440,744.362000 810.388428,733.867920 
	C816.275024,729.859741 816.426086,729.892395 820.708313,736.100281 
	C825.419922,742.930603 825.310669,743.850891 819.779419,747.789246 
	C802.891235,759.813965 772.906372,759.096436 759.438171,736.377441 
z"/>
<path fill="#000000" opacity="1.000000" stroke="none" 
	d="
M378.859558,753.500549 
	C361.640564,746.782471 352.141754,732.632629 351.530121,714.560059 
	C351.055542,700.538269 354.340057,688.140442 364.776306,678.327209 
	C378.880066,665.065491 403.267426,664.604370 418.031830,676.981812 
	C421.027557,679.493225 421.873230,681.784241 419.092133,684.835632 
	C418.757446,685.202820 418.485870,685.628662 418.195618,686.034851 
	C412.856995,693.505371 412.857391,693.505676 405.222198,688.668335 
	C390.504059,679.343750 371.124237,688.966797 369.449524,706.556885 
	C369.089661,710.336487 369.041046,714.281067 369.698425,717.999451 
	C373.037567,736.887390 393.105072,744.922852 408.628510,733.378418 
	C412.973175,730.147400 415.016815,731.067505 417.716248,734.911682 
	C423.379120,742.976135 423.154236,744.820801 414.463928,749.757568 
	C403.315521,756.090942 391.486877,756.895386 378.859558,753.500549 
z"/>
<path fill="#000000" opacity="1.000000" stroke="none" 
	d="
M858.271973,686.489441 
	C851.679077,686.402649 845.514221,686.269592 839.355103,686.401428 
	C835.965576,686.473877 834.589844,685.239441 834.628418,681.749573 
	C834.786255,667.463135 833.461731,669.804504 845.981873,669.721497 
	C863.137329,669.607666 880.294189,669.673401 897.450317,669.705811 
	C903.147034,669.716614 904.129028,670.736938 904.283569,676.365356 
	C904.557739,686.349426 904.557739,686.349060 894.838623,686.350769 
	C891.007629,686.351379 887.159363,686.582031 883.350403,686.293274 
	C879.336670,685.988953 878.198730,687.563904 878.231689,691.459229 
	C878.388000,709.946533 878.299194,728.436035 878.276794,746.924744 
	C878.268250,753.991394 877.952209,754.315063 870.977539,754.309692 
	C859.682312,754.301025 860.676697,755.158325 860.667542,744.154358 
	C860.653198,726.831543 860.687622,709.508667 860.625610,692.186096 
	C860.618347,690.172913 861.475159,687.694092 858.271973,686.489441 
z"/>
<path fill="#000000" opacity="1.000000" stroke="none" 
	d="
M600.441040,794.865479 
	C607.523804,794.822083 614.159912,794.076172 620.749329,795.644531 
	C632.324890,798.399658 638.739685,808.726013 637.277039,822.572571 
	C636.185608,832.905151 627.423096,840.263367 616.083740,840.407898 
	C612.095520,840.458679 608.086914,840.366333 604.126709,840.747009 
	C600.111450,841.132996 598.130920,839.717468 598.129333,835.622559 
	C598.124573,823.317444 598.077942,811.012390 598.079224,798.707275 
	C598.079407,797.182922 598.339844,795.694336 600.441040,794.865479 
M614.284302,832.700256 
	C623.822632,831.994690 629.293945,825.868042 628.632812,816.633118 
	C628.030518,808.220459 621.525146,802.792297 612.697754,803.053833 
	C608.793579,803.169556 606.850647,804.678223 606.925171,808.738342 
	C607.031921,814.556274 607.169495,820.389404 606.869690,826.194153 
	C606.615173,831.121033 608.313904,833.475647 614.284302,832.700256 
z"/>
<path fill="#000000" opacity="1.000000" stroke="none" 
	d="
M566.351074,813.889771 
	C568.943359,832.853882 554.102234,843.092529 541.431641,841.578369 
	C530.137024,840.228699 521.872192,831.921753 520.757324,820.112732 
	C519.675720,808.655212 526.552979,798.007507 537.025818,794.925232 
	C550.540100,790.947876 563.725708,799.292664 566.351074,813.889771 
M540.287292,833.550842 
	C549.050415,834.246948 553.803894,831.540344 556.505615,824.438782 
	C558.392029,819.480530 558.017639,814.608276 555.880920,809.900574 
	C553.824036,805.368896 550.482605,802.509033 545.183289,802.192566 
	C539.508179,801.853760 535.075684,803.648804 532.174744,808.687988 
	C527.053528,817.583923 530.341858,828.609314 540.287292,833.550842 
z"/>
<path fill="#000000" opacity="1.000000" stroke="none" 
	d="
M439.403503,834.040161 
	C425.506165,846.398743 406.639008,843.151184 400.938843,827.162170 
	C395.613220,812.223938 402.331329,796.828674 419.002106,794.184265 
	C425.223389,793.197449 430.868317,795.040466 435.782074,798.894287 
	C437.877808,800.537903 440.085754,802.293030 437.414276,805.419495 
	C434.955170,808.297546 433.091156,807.185303 430.704834,805.285645 
	C425.740570,801.334106 418.885651,801.039185 414.507355,804.261963 
	C408.906036,808.384888 406.760040,816.682434 409.362549,824.154236 
	C411.553223,830.443665 416.367310,833.938660 422.437225,833.701111 
	C425.190765,833.593323 427.614563,832.620605 429.872040,831.115112 
	C431.827454,829.811157 433.072723,828.111633 432.500763,825.668091 
	C431.871826,822.981323 429.550995,823.526917 427.626190,823.310608 
	C425.911102,823.117920 423.868927,823.956665 422.713226,821.838074 
	C421.269226,819.190979 422.950836,816.054626 426.034515,815.741760 
	C427.024292,815.641357 428.048676,815.574463 429.026001,815.712769 
	C432.853668,816.254639 438.388336,813.591370 440.182007,817.390137 
	C442.498688,822.296692 442.321259,828.359741 439.403503,834.040161 
z"/>
<path fill="#000000" opacity="1.000000" stroke="none" 
	d="
M340.360535,840.353882 
	C338.163544,839.092346 338.688721,837.264038 338.682709,835.684631 
	C338.636993,823.686035 338.749756,811.686096 338.605072,799.689087 
	C338.562347,796.147339 339.565979,794.500854 343.389130,794.611267 
	C350.381897,794.813293 357.385101,794.704590 364.383270,794.645996 
	C367.272552,794.621765 369.242706,795.292908 369.185883,798.777100 
	C369.130341,802.181885 367.124451,802.988892 364.295898,803.005188 
	C359.963562,803.030212 355.629578,803.133545 351.299316,803.049194 
	C346.954590,802.964600 347.270721,805.875549 347.203064,808.824646 
	C347.130981,811.964844 347.797272,813.971863 351.591309,813.722473 
	C355.075012,813.493530 358.587097,813.717102 362.086517,813.700134 
	C364.733917,813.687317 366.100952,814.885071 366.127747,817.604980 
	C366.155243,820.388123 364.782379,821.433594 362.090424,821.361084 
	C358.427094,821.262390 354.754333,821.469849 351.093506,821.333496 
	C346.904266,821.177368 347.154358,823.990967 347.295044,826.721191 
	C347.430695,829.354675 346.301575,832.792725 351.016663,832.693665 
	C355.514069,832.599060 360.016083,832.738220 364.514404,832.667297 
	C367.365143,832.622437 369.356018,833.141968 369.321899,836.712036 
	C369.289673,840.086182 367.333130,840.424805 364.746185,840.421631 
	C356.755524,840.411682 348.764771,840.462158 340.360535,840.353882 
z"/>
<path fill="#000000" opacity="1.000000" stroke="none" 
	d="
M680.196899,794.815063 
	C685.040833,793.991272 686.566284,795.830566 686.416809,800.237244 
	C686.146179,808.214844 686.417236,816.209106 686.321167,824.194763 
	C686.190796,835.034485 679.089722,841.743103 667.695007,841.953491 
	C656.994507,842.151184 649.190491,835.337952 648.776306,824.869873 
	C648.434570,816.230896 648.749573,807.567566 648.661133,798.916138 
	C648.631592,796.035522 649.615723,794.650269 652.692017,794.639954 
	C655.763794,794.629700 657.351257,795.604065 657.315857,798.919067 
	C657.228882,807.071228 657.234680,815.225708 657.324280,823.377991 
	C657.401978,830.445129 660.889954,833.843201 667.767090,833.792236 
	C674.448730,833.742737 677.644958,830.543091 677.734924,823.503601 
	C677.834900,815.684570 677.717834,807.862976 677.775452,800.043030 
	C677.789490,798.138062 677.271423,795.908508 680.196899,794.815063 
z"/>
<path fill="#000000" opacity="1.000000" stroke="none" 
	d="
M495.474945,794.898804 
	C497.625061,796.040588 497.991119,797.944519 498.633026,799.604004 
	C503.246918,811.531921 507.805695,823.481262 512.333191,835.442322 
	C512.937927,837.039978 514.414978,839.112854 511.961853,840.182434 
	C509.647156,841.191711 507.068756,841.158386 505.111725,838.991028 
	C504.790771,838.635620 504.687347,838.093018 504.431885,837.667847 
	C502.849976,835.035156 503.268463,830.547241 499.907867,829.832825 
	C495.610840,828.919373 490.987732,829.435730 486.509186,829.528931 
	C484.596649,829.568726 483.766693,831.127014 483.198608,832.802856 
	C482.612213,834.532654 481.969666,836.248352 481.253387,837.928345 
	C479.762024,841.426147 476.768738,841.241943 474.082916,840.183289 
	C471.218658,839.054382 473.102997,836.853638 473.740356,835.147034 
	C478.098236,823.478394 482.764771,811.916077 486.760742,800.125916 
	C488.302246,795.577698 490.576691,793.901123 495.474945,794.898804 
M495.900543,813.676086 
	C495.212738,812.077820 495.082672,810.042358 492.731659,809.636841 
	C490.230774,811.013306 490.197388,813.752563 489.394043,815.974121 
	C487.554077,821.062256 488.493683,822.185791 493.879944,821.822449 
	C498.273926,821.526001 498.561890,820.589355 495.900543,813.676086 
z"/>
<path fill="#000000" opacity="1.000000" stroke="none" 
	d="
M730.395874,838.683105 
	C720.850281,843.369934 711.825806,843.071167 703.994141,836.281799 
	C695.887329,829.253845 694.195374,819.923096 697.168396,809.870667 
	C700.033752,800.182434 707.114624,795.121460 716.868408,793.971802 
	C723.067810,793.241089 728.640076,795.465332 733.569153,799.260193 
	C735.961548,801.102112 735.100464,802.944458 733.637146,804.828003 
	C732.144653,806.749207 730.764221,807.639343 728.250610,805.898743 
	C720.978943,800.863159 713.836975,800.992310 709.346558,805.883667 
	C704.093689,811.605713 703.812073,823.164307 708.781677,829.064514 
	C713.123230,834.218994 720.416504,835.253784 726.399231,831.626160 
	C728.868225,830.129028 731.276428,826.464722 734.259827,830.802917 
	C737.270813,835.181213 733.095947,836.468994 730.395874,838.683105 
z"/>
<path fill="#000000" opacity="1.000000" stroke="none" 
	d="
M319.160522,825.011963 
	C317.494598,829.424805 315.882355,833.443665 314.431763,837.520020 
	C313.639587,839.746094 312.258514,840.731689 309.914185,840.515930 
	C307.645447,840.307129 305.167328,840.787292 304.098022,837.832153 
	C299.116394,824.064575 294.078278,810.317444 289.085083,796.554077 
	C288.989929,796.291748 289.198120,795.919434 289.268555,795.599243 
	C295.774017,793.557434 297.156952,794.236267 299.185425,800.317627 
	C301.554504,807.420227 303.938934,814.518188 306.393646,821.591492 
	C306.969421,823.250610 307.228577,825.225342 309.642883,826.113220 
	C312.493073,822.018921 313.476471,817.109070 315.263580,812.570190 
	C316.909363,808.390015 318.327728,804.120972 319.893402,799.908569 
	C322.000519,794.239197 323.062653,793.756409 329.932190,795.719727 
	C326.372314,805.386780 322.826996,815.014343 319.160522,825.011963 
z"/>
<path fill="#000000" opacity="1.000000" stroke="none" 
	d="
M452.854034,826.982178 
	C452.849915,817.666992 452.892426,808.848328 452.827789,800.030518 
	C452.804230,796.816406 453.324890,794.574890 457.405914,794.616272 
	C461.502441,794.657837 461.353912,797.199524 461.349518,799.970947 
	C461.330444,811.950562 461.270813,823.930664 461.370605,835.909424 
	C461.395905,838.943604 460.625488,840.528748 457.225647,840.533386 
	C453.886871,840.537903 452.789856,838.990967 452.853027,835.964172 
	C452.912018,833.137024 452.860901,830.307495 452.854034,826.982178 
z"/>
<path fill="#000000" opacity="1.000000" stroke="none" 
	d="
M351.077576,780.879150 
	C352.348389,777.514038 354.623322,777.448669 357.230988,778.366760 
	C360.229706,779.422485 363.332764,780.625061 364.118103,784.051025 
	C364.708038,786.624634 362.735565,788.047974 360.555786,787.034912 
	C357.222412,785.485718 353.570374,784.256836 351.077576,780.879150 
z"/>
<path fill="#000000" opacity="1.000000" stroke="none" 
	d="
M353.605774,785.857056 
	C356.527069,786.693970 359.201141,787.690308 357.942902,790.932861 
	C356.883240,793.663574 354.478516,792.578491 352.419495,791.798340 
	C351.669586,791.514343 350.814270,791.474792 350.000061,791.400818 
	C347.929810,791.212830 345.093231,791.709656 345.278748,788.559387 
	C345.437805,785.858032 347.954346,785.606201 350.217438,785.659241 
	C351.205780,785.682373 352.193420,785.733093 353.605774,785.857056 
z"/>
<path fill="#000000" opacity="1.000000" stroke="none" 
	d="
M671.131104,851.539185 
	C670.451721,853.157959 669.314331,853.502563 668.167236,853.591858 
	C665.613342,853.790771 663.006775,853.877380 662.739197,850.296631 
	C662.559875,847.896423 663.205383,845.982483 666.022034,845.752747 
	C668.877319,845.519897 671.489441,845.713013 671.311096,849.645142 
	C671.288635,850.138611 671.262329,850.631958 671.131104,851.539185 
z"/>
<path fill="#000000" opacity="1.000000" stroke="none" 
	d="
M491.442566,787.736816 
	C494.596771,782.283447 494.604309,782.279907 500.437103,783.337463 
	C500.221436,786.593628 497.902924,788.758545 495.752930,790.427002 
	C494.056396,791.743530 490.705109,792.818176 491.442566,787.736816 
z"/>
</svg>